# xmcd CD database file generated by Grip 2.95
# 
# Track frame offsets:
#       150
#       13775
#       27773
#       46570
#       60868
#       80194
#       92593
#       107378
#       141444
#       155122
#       172042
#       188727
#       216267
#       230733
#       248595
#       262558
# 
# Disc length: 3695 seconds
# 
# Revision: 3
# Processed by: cddbd v1.4b42PL1 Copyright (c) Steve Scherf et al.
# Submitted via: Grip 2.95
# 
DISCID=c90e6d10
DTITLE=Red Clay Ramblers - The Red Clay Ramblers LIVE
DYEAR=1900
DGENRE=
TTITLE0=Wahoo
TTITLE1=Pictures for You
TTITLE2=One Meatball
TTITLE3=The Cat Came Back
TTITLE4=Pal-Ya-Chee
TTITLE5=Valley of the Dry Bones
TTITLE6=It Ain't Right
TTITLE7=Fiddlesticks
TTITLE8=Jim Canaan's
TTITLE9=Should've Seen It Coming
TTITLE10=Hiawatha's Lullaby
TTITLE11=The Saratoga Hornpipe
TTITLE12=Follow You All Over the World
TTITLE13=Cotton-Eyed Joe
TTITLE14=I Crept into the Crypt
TTITLE15=Fire on the Mountain
EXTD=
EXTT0=
EXTT1=
EXTT2=
EXTT3=
EXTT4=
EXTT5=
EXTT6=
EXTT7=
EXTT8=
EXTT9=
EXTT10=
EXTT11=
EXTT12=
EXTT13=
EXTT14=
EXTT15=
PLAYORDER=
